<svg version="1.1" xmlns="http://www.w3.org/2000/svg" xmlns:xlink="http://www.w3.org/1999/xlink" width="512px" height="512px" viewBox="0,0,256,256"><g fill="#e40909" fill-rule="nonzero" stroke="none" stroke-width="1" stroke-linecap="butt" stroke-linejoin="miter" stroke-miterlimit="10" stroke-dasharray="" stroke-dashoffset="0" font-family="none" font-weight="none" font-size="none" text-anchor="none" style="mix-blend-mode: normal"><g transform="scale(0.5,0.5)"><path d="M256,48c114.87523,0 208,93.12477 208,208c0,114.87523 -93.12477,208 -208,208c-114.87523,0 -208,-93.12477 -208,-208c0,-114.87523 93.12477,-208 208,-208zM256,512c141.3849,0 256,-114.6151 256,-256c0,-141.3849 -114.6151,-256 -256,-256c-141.3849,0 -256,114.6151 -256,256c0,141.3849 114.6151,256 256,256zM135.1,217.4c-4.5,4.2 -7.1,10.1 -7.1,16.3c0,12.3 10,22.3 22.3,22.3h57.7v96c0,17.7 14.3,32 32,32h32c17.7,0 32,-14.3 32,-32v-96h57.7c12.3,0 22.3,-10 22.3,-22.3c0,-6.2 -2.6,-12.1 -7.1,-16.3l-107.1,-99.9c-3.8,-3.5 -8.7,-5.5 -13.8,-5.5c-5.1,0 -10.1,2 -13.8,5.5z"></path></g></g></svg>