<svg xmlns="http://www.w3.org/2000/svg" width="512" height="512" viewBox="0 0 256 256"><path d="M128 24c57.438 0 104 46.562 104 104s-46.562 104-104 104S24 185.438 24 128 70.562 24 128 24zm0 232c70.692 0 128-57.308 128-128C256 57.308 198.692 0 128 0 57.308 0 0 57.308 0 128c0 70.692 57.308 128 128 128zM67.55 108.7a11.16 11.16 0 00-3.55 8.15C64 123 69 128 75.15 128H104v48c0 8.85 7.15 16 16 16h16c8.85 0 16-7.15 16-16v-48h28.85c6.15 0 11.15-5 11.15-11.15 0-3.1-1.3-6.05-3.55-8.15L134.9 58.75C133 57 130.55 56 128 56c-2.55 0-5.05 1-6.9 2.75z" fill="#e40909" font-family="none" font-weight="none" font-size="none" text-anchor="none"/></svg>